<svg xmlns="http://www.w3.org/2000/svg" xmlns:xlink="http://www.w3.org/1999/xlink" preserveAspectRatio="xMidYMid" width="35" height="40" viewBox="0 0 35 40">
  <defs>
    <style>
      .cls-1 {
        fill: #186583;
        fill-rule: evenodd;
      }
    </style>
  </defs>
  <path d="M30.961,40.000 L4.038,40.000 C1.808,40.000 -0.000,38.209 -0.000,36.000 L-0.000,8.000 C-0.000,5.791 1.808,4.000 4.038,4.000 L6.731,4.000 C6.731,1.791 8.539,-0.000 10.769,-0.000 L24.231,-0.000 C26.461,-0.000 28.269,1.791 28.269,4.000 L30.961,4.000 C33.192,4.000 35.000,5.791 35.000,8.000 L35.000,36.000 C35.000,38.209 33.192,40.000 30.961,40.000 ZM26.923,5.333 L26.923,4.000 C26.923,2.530 25.715,1.333 24.231,1.333 L10.769,1.333 C9.285,1.333 8.077,2.530 8.077,4.000 L8.077,5.333 L8.077,6.667 L26.923,6.667 L26.923,5.333 ZM33.654,8.000 C33.654,6.530 32.446,5.333 30.961,5.333 L28.269,5.333 L28.269,6.667 L28.269,8.000 L6.731,8.000 L6.731,6.667 L6.731,5.333 L4.038,5.333 C2.554,5.333 1.346,6.530 1.346,8.000 L1.346,36.000 C1.346,37.470 2.554,38.667 4.038,38.667 L30.961,38.667 C32.446,38.667 33.654,37.470 33.654,36.000 L33.654,8.000 ZM15.977,28.118 C15.970,28.125 15.968,28.135 15.961,28.142 C15.828,28.273 15.654,28.338 15.481,28.337 C15.307,28.338 15.133,28.273 15.001,28.142 C14.993,28.135 14.991,28.125 14.984,28.118 L10.289,23.467 C10.026,23.207 10.026,22.785 10.289,22.524 C10.552,22.264 10.978,22.264 11.241,22.524 L15.481,26.724 L23.759,18.524 C24.022,18.264 24.448,18.264 24.711,18.524 C24.974,18.785 24.974,19.207 24.711,19.467 L15.977,28.118 ZM15.481,3.333 L19.519,3.333 C19.891,3.333 20.192,3.632 20.192,4.000 C20.192,4.368 19.891,4.667 19.519,4.667 L15.481,4.667 C15.109,4.667 14.808,4.368 14.808,4.000 C14.808,3.632 15.109,3.333 15.481,3.333 Z" class="cls-1"/>
</svg>
