<svg xmlns="http://www.w3.org/2000/svg" xmlns:xlink="http://www.w3.org/1999/xlink" preserveAspectRatio="xMidYMid" width="54" height="54" viewBox="0 0 54 54">
  <defs>
    <style>
      .cls-1 {
        fill: #1d1d1d;
        fill-rule: evenodd;
      }
    </style>
  </defs>
  <path d="M53.668,10.596 L41.790,22.745 C41.791,22.770 41.804,22.790 41.804,22.815 L41.804,53.989 L-0.009,53.989 L-0.009,16.836 L0.326,16.494 C0.327,16.492 0.329,16.491 0.330,16.490 L12.793,3.750 C12.794,3.749 12.795,3.748 12.796,3.748 L13.131,3.404 L40.648,3.404 L43.642,0.344 C43.857,0.123 44.149,-0.001 44.455,-0.001 C44.761,-0.001 45.053,0.123 45.268,0.344 L53.668,8.932 C53.884,9.153 54.005,9.452 54.005,9.764 C54.005,10.076 53.884,10.375 53.668,10.596 ZM12.457,7.420 L3.919,16.147 L12.457,16.147 L12.457,7.420 ZM14.758,5.757 L14.758,18.500 L2.292,18.500 L2.292,51.636 L39.503,51.636 L39.503,25.085 L27.054,37.818 C26.855,38.023 26.589,38.144 26.308,38.160 L21.772,38.431 C21.709,38.449 21.649,38.478 21.583,38.482 L17.426,38.740 C17.402,38.742 17.379,38.742 17.356,38.742 C17.051,38.742 16.759,38.618 16.542,38.397 C16.533,38.388 16.531,38.375 16.522,38.365 C16.516,38.359 16.508,38.357 16.502,38.351 C16.269,38.115 16.148,37.786 16.167,37.451 L16.693,28.320 C16.710,28.033 16.829,27.761 17.028,27.557 L38.348,5.757 L14.758,5.757 ZM20.460,36.153 C20.409,35.680 20.233,35.242 19.933,34.905 C19.622,34.558 19.193,34.333 18.700,34.257 L18.583,36.265 L20.460,36.153 ZM40.138,7.253 L18.964,28.903 L18.790,31.922 C19.903,32.034 20.903,32.504 21.631,33.317 C22.288,34.052 22.667,34.989 22.752,36.016 L25.736,35.838 L46.912,14.179 L44.340,11.549 L24.245,32.097 C24.021,32.327 23.726,32.442 23.432,32.442 C23.138,32.442 22.843,32.327 22.618,32.097 C22.169,31.638 22.169,30.893 22.618,30.434 L42.714,9.886 L40.138,7.253 ZM44.455,2.839 L41.765,5.589 L48.538,12.515 L51.227,9.764 L44.455,2.839 Z" class="cls-1"/>
</svg>
