<svg xmlns="http://www.w3.org/2000/svg" xmlns:xlink="http://www.w3.org/1999/xlink" preserveAspectRatio="xMidYMid" width="16.5" height="16.094" viewBox="0 0 16.5 16.094">
  <defs>
    <style>
      .cls-1 {
        fill: #186583;
        fill-rule: evenodd;
      }
    </style>
  </defs>
  <path d="M16.147,16.093 L0.357,16.093 C0.157,16.093 -0.005,15.935 -0.005,15.741 L-0.005,0.350 C-0.005,0.155 0.157,-0.003 0.357,-0.003 L8.192,-0.003 C8.392,-0.003 8.553,0.155 8.553,0.350 C8.553,0.545 8.392,0.702 8.192,0.702 L0.719,0.702 L0.719,15.388 L15.785,15.388 L15.785,8.102 C15.785,7.907 15.947,7.750 16.147,7.750 C16.346,7.750 16.508,7.907 16.508,8.102 L16.508,15.741 C16.508,15.935 16.346,16.093 16.147,16.093 ZM6.648,12.878 C6.585,12.939 6.502,12.976 6.413,12.981 L3.234,13.163 C3.227,13.163 3.220,13.163 3.213,13.163 C3.117,13.163 3.025,13.127 2.957,13.060 C2.884,12.989 2.846,12.891 2.852,12.790 L3.040,9.690 C3.045,9.603 3.083,9.522 3.145,9.461 L12.624,0.220 C12.692,0.154 12.784,0.117 12.880,0.117 C12.976,0.117 13.067,0.154 13.135,0.220 L16.128,3.136 C16.196,3.202 16.234,3.292 16.234,3.385 C16.234,3.479 16.196,3.569 16.128,3.635 L6.648,12.878 ZM3.598,12.436 L4.391,12.390 C4.386,12.184 4.322,11.988 4.180,11.849 C4.045,11.718 3.855,11.660 3.645,11.649 L3.598,12.436 ZM3.753,9.865 L3.687,10.961 C4.074,10.983 4.431,11.096 4.691,11.350 C4.959,11.611 5.078,11.966 5.094,12.350 L6.234,12.285 L13.823,4.885 L11.342,2.467 L3.753,9.865 ZM12.880,0.968 L11.854,1.968 L14.335,4.386 L15.361,3.386 L12.880,0.968 Z" class="cls-1"/>
</svg>
