<svg xmlns="http://www.w3.org/2000/svg" xmlns:xlink="http://www.w3.org/1999/xlink" preserveAspectRatio="xMidYMid" width="20.375" height="10.656" viewBox="0 0 20.375 10.656">
  <defs>
    <style>
      .cls-1 {
        fill: #fff;
        fill-rule: evenodd;
      }
    </style>
  </defs>
  <path d="M20.219,5.775 C18.457,8.740 14.511,10.656 10.167,10.656 C5.822,10.656 1.876,8.740 0.115,5.775 C-0.060,5.480 -0.060,5.128 0.115,4.834 C1.863,1.895 5.809,-0.004 10.167,-0.004 C14.525,-0.004 18.470,1.895 20.218,4.834 C20.393,5.128 20.394,5.480 20.219,5.775 ZM19.651,5.128 C18.015,2.378 14.292,0.601 10.167,0.601 C6.041,0.601 2.318,2.378 0.683,5.128 C0.617,5.238 0.617,5.370 0.682,5.481 C2.332,8.257 6.054,10.050 10.167,10.050 C14.279,10.050 18.002,8.257 19.651,5.481 C19.717,5.370 19.717,5.238 19.651,5.128 ZM10.167,9.409 C7.744,9.409 5.772,7.578 5.772,5.326 C5.772,3.074 7.744,1.242 10.167,1.242 C12.590,1.242 14.561,3.074 14.561,5.326 C14.561,7.578 12.590,9.409 10.167,9.409 ZM10.167,1.848 C8.102,1.848 6.422,3.408 6.422,5.326 C6.422,7.244 8.102,8.804 10.167,8.804 C12.232,8.804 13.912,7.244 13.912,5.326 C13.912,3.408 12.232,1.848 10.167,1.848 ZM10.167,3.474 C9.067,3.474 8.172,4.304 8.172,5.326 C8.172,5.493 8.027,5.629 7.847,5.629 C7.668,5.629 7.523,5.493 7.523,5.326 C7.523,3.971 8.709,2.868 10.167,2.868 C10.346,2.868 10.491,3.004 10.491,3.171 C10.491,3.338 10.346,3.474 10.167,3.474 Z" class="cls-1"/>
</svg>
