<svg xmlns="http://www.w3.org/2000/svg" xmlns:xlink="http://www.w3.org/1999/xlink" preserveAspectRatio="xMidYMid" width="24" height="21" viewBox="0 0 24 21">
  <defs>
    <style>
      .cls-1 {
        fill: #4b4b4b;
        fill-rule: evenodd;
      }
    </style>
  </defs>
  <path d="M8.837,12.397 L15.159,12.397 L15.627,12.397 L15.627,12.827 L15.627,16.106 L15.627,16.537 L15.159,16.537 L8.837,16.537 L8.370,16.537 L8.370,16.106 L8.370,12.827 L8.370,12.397 L8.837,12.397 L8.837,12.397 ZM21.864,8.795 L23.530,8.795 L23.997,8.795 L23.997,8.365 L23.997,3.838 L23.997,3.636 L23.824,3.505 L19.280,0.095 L19.151,-0.002 L18.987,-0.002 L5.010,-0.002 L4.846,-0.002 L4.716,0.095 L0.173,3.505 L-0.001,3.636 L-0.001,3.838 L-0.001,8.365 L-0.001,8.795 L0.467,8.795 L2.132,8.795 L2.132,20.569 L2.132,20.999 L2.600,20.999 L21.397,20.999 L21.864,20.999 L21.864,20.569 L21.864,8.795 L21.864,8.795 ZM3.067,8.795 L3.067,20.139 L20.929,20.139 L20.929,8.795 L3.067,8.795 L3.067,8.795 ZM23.062,4.424 L23.062,7.934 L0.934,7.934 L0.934,4.424 L23.062,4.424 L23.062,4.424 ZM1.571,3.563 L5.174,0.859 L18.822,0.859 L22.425,3.563 L1.571,3.563 L1.571,3.563 ZM14.692,13.258 L9.305,13.258 L9.305,15.676 L14.692,15.676 L14.692,13.258 Z" class="cls-1"/>
</svg>
