<svg xmlns="http://www.w3.org/2000/svg" xmlns:xlink="http://www.w3.org/1999/xlink" preserveAspectRatio="xMidYMid" width="52" height="52" viewBox="0 0 52 52">
  <defs>
    <style>
      .cls-1, .cls-2 {
        fill: #fff;
      }

      .cls-1 {
        stroke: #186583;
        stroke-width: 1px;
      }

      .cls-2 {
        stroke: #b92121;
        stroke-width: 2px;
      }

      .cls-3 {
        fill: #186583;
        fill-rule: evenodd;
      }
    </style>
  </defs>
  <g>
    <rect x="1" y="1" width="50" height="50" class="cls-1"/>
    <rect x="1" y="1" width="50" height="50" class="cls-2"/>
    <path d="M39.301,35.000 L36.507,35.000 C36.121,35.000 35.809,34.684 35.809,34.295 L35.809,31.478 C35.809,31.088 36.121,30.773 36.507,30.773 L39.301,30.773 C39.687,30.773 40.000,31.088 40.000,31.478 L40.000,34.295 C40.000,34.684 39.687,35.000 39.301,35.000 ZM39.301,27.113 L36.507,27.113 C36.121,27.113 35.809,26.797 35.809,26.408 L35.809,23.591 C35.809,23.202 36.121,22.886 36.507,22.886 L39.301,22.886 C39.687,22.886 40.000,23.202 40.000,23.591 L40.000,26.408 C40.000,26.797 39.687,27.113 39.301,27.113 ZM39.301,19.226 L36.507,19.226 C36.121,19.226 35.809,18.911 35.809,18.522 L35.809,15.704 C35.809,15.315 36.121,14.999 36.507,14.999 L39.301,14.999 C39.687,14.999 40.000,15.315 40.000,15.704 L40.000,18.522 C40.000,18.911 39.687,19.226 39.301,19.226 ZM29.853,35.000 L11.948,35.000 C11.563,35.000 11.250,34.684 11.250,34.295 L11.250,31.478 C11.250,31.088 11.563,30.773 11.948,30.773 L29.853,30.773 C30.239,30.773 30.551,31.088 30.551,31.478 L30.551,34.295 C30.551,34.684 30.239,35.000 29.853,35.000 ZM29.853,27.113 L11.948,27.113 C11.563,27.113 11.250,26.797 11.250,26.408 L11.250,23.591 C11.250,23.202 11.563,22.886 11.948,22.886 L29.853,22.886 C30.239,22.886 30.551,23.202 30.551,23.591 L30.551,26.408 C30.551,26.797 30.239,27.113 29.853,27.113 ZM29.853,19.226 L11.948,19.226 C11.563,19.226 11.250,18.911 11.250,18.522 L11.250,15.704 C11.250,15.315 11.563,14.999 11.948,14.999 L29.853,14.999 C30.239,14.999 30.551,15.315 30.551,15.704 L30.551,18.522 C30.551,18.911 30.239,19.226 29.853,19.226 Z" class="cls-3"/>
  </g>
</svg>
