<svg xmlns="http://www.w3.org/2000/svg" xmlns:xlink="http://www.w3.org/1999/xlink" preserveAspectRatio="xMidYMid" width="16" height="16" viewBox="0 0 16 16">
  <defs>
    <style>
      .cls-1 {
        fill: #f7fbf4;
        fill-rule: evenodd;
      }
    </style>
  </defs>
  <path d="M15.601,16.000 L5.187,16.000 C4.966,16.000 4.787,15.821 4.787,15.600 L4.787,10.000 L5.588,10.000 L5.588,15.200 L15.201,15.200 L15.201,0.800 L5.588,0.800 L5.588,6.000 L4.787,6.000 L4.787,0.400 C4.787,0.179 4.966,-0.000 5.187,-0.000 L15.601,-0.000 C15.822,-0.000 16.002,0.179 16.002,0.400 L16.002,15.600 C16.002,15.821 15.822,16.000 15.601,16.000 ZM1.333,7.600 L9.941,7.600 C10.162,7.600 10.342,7.779 10.342,8.000 C10.342,8.221 10.162,8.400 9.941,8.400 L1.333,8.400 L3.018,10.120 C3.172,10.278 3.170,10.532 3.011,10.686 C2.853,10.840 2.600,10.838 2.445,10.680 L0.094,8.280 C-0.060,8.122 -0.058,7.868 0.100,7.714 L2.445,5.320 C2.600,5.162 2.853,5.160 3.011,5.314 C3.170,5.468 3.172,5.722 3.018,5.880 L1.333,7.600 Z" class="cls-1"/>
</svg>
