<svg xmlns="http://www.w3.org/2000/svg" xmlns:xlink="http://www.w3.org/1999/xlink" preserveAspectRatio="xMidYMid" width="21" height="23" viewBox="0 0 21 23">
  <defs>
    <style>
      .cls-1 {
        fill: #fff;
        fill-rule: evenodd;
      }
    </style>
  </defs>
  <path d="M19.500,23.000 L1.500,23.000 C0.673,23.000 -0.000,22.330 -0.000,21.505 L-0.000,10.873 C-0.000,10.049 0.673,9.378 1.500,9.378 L3.582,9.378 L3.582,6.888 C3.582,3.087 6.685,-0.006 10.500,-0.006 C14.313,-0.006 17.416,3.087 17.416,6.888 L17.416,9.378 L19.500,9.378 C20.327,9.378 21.000,10.049 21.000,10.873 L21.000,21.505 C21.000,22.330 20.327,23.000 19.500,23.000 ZM16.416,6.888 C16.416,3.636 13.762,0.990 10.500,0.990 C7.237,0.990 4.582,3.636 4.582,6.888 L4.582,9.378 L16.416,9.378 L16.416,6.888 ZM20.000,10.873 C20.000,10.598 19.775,10.375 19.500,10.375 L1.500,10.375 C1.225,10.375 1.000,10.598 1.000,10.873 L1.000,21.505 C1.000,21.780 1.225,22.004 1.500,22.004 L19.500,22.004 C19.775,22.004 20.000,21.780 20.000,21.505 L20.000,10.873 ZM11.998,16.951 L11.998,19.512 L8.998,19.512 L8.998,16.950 C8.324,16.470 7.916,15.696 7.916,14.866 C7.916,13.445 9.075,12.290 10.500,12.290 C11.924,12.290 13.082,13.445 13.082,14.866 C13.082,15.695 12.673,16.470 11.998,16.951 ZM10.500,13.287 C9.627,13.287 8.916,13.995 8.916,14.866 C8.916,15.434 9.231,15.961 9.739,16.239 L9.998,16.381 L9.998,18.515 L10.998,18.515 L10.998,16.384 L11.256,16.242 C11.766,15.961 12.082,15.433 12.082,14.866 C12.082,13.995 11.372,13.287 10.500,13.287 Z" class="cls-1"/>
</svg>
