<svg xmlns="http://www.w3.org/2000/svg" xmlns:xlink="http://www.w3.org/1999/xlink" preserveAspectRatio="xMidYMid" width="16.5" height="17" viewBox="0 0 16.5 17">
  <defs>
    <style>
      .cls-1 {
        fill: #186583;
        fill-rule: evenodd;
      }
    </style>
  </defs>
  <path d="M16.116,2.737 L15.011,2.737 C15.166,2.791 15.287,2.917 15.276,3.086 L14.492,15.911 C14.452,16.521 13.956,16.999 13.363,16.999 L3.143,16.999 C2.558,16.999 2.052,16.511 2.015,15.911 L1.230,3.086 C1.220,2.917 1.340,2.790 1.495,2.737 L0.390,2.737 C0.181,2.737 0.011,2.572 0.011,2.367 C0.011,2.163 0.181,1.997 0.390,1.997 L5.321,1.997 C5.769,0.818 6.932,0.000 8.253,0.000 C9.573,0.000 10.736,0.818 11.184,1.997 L16.116,1.997 C16.326,1.997 16.495,2.163 16.495,2.367 C16.495,2.572 16.326,2.737 16.116,2.737 ZM8.253,0.740 C7.354,0.740 6.569,1.249 6.168,1.997 L10.338,1.997 C9.936,1.249 9.151,0.740 8.253,0.740 ZM1.711,2.737 C1.856,2.783 1.977,2.884 1.986,3.042 L2.771,15.867 C2.784,16.079 2.954,16.259 3.143,16.259 L13.363,16.259 C13.551,16.259 13.721,16.079 13.735,15.865 L14.520,3.042 C14.529,2.883 14.653,2.783 14.798,2.737 L1.711,2.737 ZM11.127,14.282 C11.120,14.282 11.112,14.281 11.105,14.281 C10.896,14.270 10.736,14.096 10.748,13.891 L11.253,5.075 C11.264,4.871 11.446,4.711 11.652,4.726 C11.861,4.737 12.021,4.912 12.009,5.116 L11.505,13.933 C11.493,14.129 11.326,14.282 11.127,14.282 ZM8.253,14.282 C8.044,14.282 7.874,14.116 7.874,13.912 L7.874,5.096 C7.874,4.891 8.044,4.725 8.253,4.725 C8.463,4.725 8.632,4.891 8.632,5.096 L8.632,13.912 C8.632,14.116 8.463,14.282 8.253,14.282 ZM5.400,14.281 C5.392,14.281 5.385,14.282 5.378,14.282 C5.179,14.282 5.011,14.129 5.000,13.933 L4.495,5.116 C4.484,4.912 4.643,4.737 4.853,4.726 C5.057,4.713 5.240,4.871 5.252,5.075 L5.757,13.891 C5.769,14.096 5.609,14.270 5.400,14.281 Z" class="cls-1"/>
</svg>
