<svg xmlns="http://www.w3.org/2000/svg" xmlns:xlink="http://www.w3.org/1999/xlink" preserveAspectRatio="xMidYMid" width="64.94" height="65.969" viewBox="0 0 64.94 65.969">
  <defs>
    <style>
      .cls-1 {
        fill: #fff;
        fill-rule: evenodd;
      }
    </style>
  </defs>
  <path d="M52.089,65.974 C39.456,65.974 26.375,60.048 16.197,49.718 C5.511,38.869 -0.322,25.241 -0.013,12.117 L-0.002,11.622 L0.301,11.233 C1.203,10.071 2.091,9.049 3.016,8.107 C6.419,4.656 10.416,2.013 14.904,0.250 C15.303,0.092 15.769,0.011 16.283,0.011 C17.839,0.011 20.388,0.851 20.933,2.368 C22.518,6.832 24.519,12.665 25.969,18.220 C26.243,19.283 25.941,22.398 24.445,23.355 L19.272,26.687 C18.921,26.907 18.783,27.304 18.726,27.600 C18.552,28.492 18.878,29.648 19.569,30.610 C21.618,33.456 23.985,36.273 26.609,38.982 C29.269,41.636 32.039,44.029 34.820,46.081 C36.227,47.133 38.166,47.229 38.671,46.406 L41.965,41.132 C42.816,39.793 45.277,39.504 46.153,39.504 C46.465,39.504 46.733,39.529 46.967,39.582 C53.668,41.100 57.648,42.404 62.741,44.748 C64.322,45.473 65.453,48.941 64.722,50.830 C62.989,55.374 60.388,59.434 56.997,62.888 C56.034,63.853 54.998,64.780 53.902,65.646 L53.522,65.951 L52.089,65.974 L52.089,65.974 ZM2.902,12.682 C2.767,24.847 8.275,37.478 18.058,47.411 L18.275,47.631 C27.896,57.397 40.227,63.007 52.089,63.007 L52.486,63.001 C53.348,62.294 54.170,61.552 54.933,60.784 C58.030,57.631 60.408,53.917 61.996,49.753 C62.187,49.263 61.730,47.713 61.362,47.339 C56.648,45.200 52.811,43.946 46.331,42.479 C45.420,42.505 44.518,42.723 44.298,42.888 L41.149,47.982 C39.753,50.283 35.893,50.558 33.095,48.478 C30.203,46.345 27.322,43.853 24.542,41.080 C21.801,38.249 19.340,35.322 17.210,32.361 C16.017,30.703 15.523,28.759 15.857,27.032 C16.094,25.792 16.757,24.777 17.719,24.174 L22.880,20.848 C22.980,20.637 23.212,19.362 23.137,18.959 C21.721,13.534 19.748,7.782 18.184,3.381 C18.038,3.334 17.079,2.978 16.283,2.978 C16.060,2.978 15.966,3.016 15.963,3.016 C11.855,4.630 8.194,7.049 5.086,10.202 C4.346,10.955 3.627,11.770 2.902,12.682 L2.902,12.682 Z" class="cls-1"/>
</svg>
