<svg xmlns="http://www.w3.org/2000/svg" xmlns:xlink="http://www.w3.org/1999/xlink" preserveAspectRatio="xMidYMid" width="18" height="24" viewBox="0 0 18 24">
  <defs>
    <style>
      .cls-1 {
        fill: #f7fbf4;
        fill-rule: evenodd;
      }
    </style>
  </defs>
  <path d="M17.714,22.291 C17.466,23.510 16.194,24.268 14.969,23.910 C13.195,23.393 11.161,23.099 9.000,23.099 C6.839,23.099 4.805,23.393 3.031,23.910 C1.806,24.268 0.533,23.510 0.286,22.291 C0.100,21.367 -0.000,20.398 -0.000,19.399 C-0.000,14.938 1.984,11.070 4.886,9.160 C5.963,10.138 7.409,10.736 9.000,10.736 C10.590,10.736 12.037,10.138 13.114,9.160 C16.016,11.070 18.000,14.939 18.000,19.399 C18.000,20.398 17.900,21.367 17.714,22.291 ZM15.688,13.763 C15.036,12.423 14.164,11.297 13.142,10.467 C11.941,11.309 10.500,11.765 9.000,11.765 C7.500,11.765 6.058,11.309 4.858,10.467 C3.836,11.297 2.964,12.422 2.312,13.763 C1.492,15.446 1.059,17.395 1.059,19.399 C1.059,20.312 1.148,21.218 1.325,22.093 C1.428,22.602 1.885,22.970 2.412,22.970 C2.517,22.970 2.623,22.955 2.726,22.925 C4.644,22.366 6.813,22.071 9.000,22.071 C11.188,22.071 13.357,22.366 15.273,22.925 C15.377,22.955 15.482,22.970 15.588,22.970 C16.114,22.970 16.571,22.602 16.675,22.093 C16.851,21.218 16.941,20.312 16.941,19.399 C16.941,17.395 16.508,15.446 15.688,13.763 ZM9.000,9.760 C6.226,9.760 3.977,7.575 3.977,4.880 C3.977,2.185 6.226,-0.000 9.000,-0.000 C11.774,-0.000 14.023,2.185 14.023,4.880 C14.023,7.575 11.774,9.760 9.000,9.760 ZM9.000,1.028 C6.814,1.028 5.035,2.756 5.035,4.880 C5.035,7.004 6.814,8.732 9.000,8.732 C11.186,8.732 12.965,7.004 12.965,4.880 C12.965,2.756 11.186,1.028 9.000,1.028 Z" class="cls-1"/>
</svg>
