<svg xmlns="http://www.w3.org/2000/svg" xmlns:xlink="http://www.w3.org/1999/xlink" preserveAspectRatio="xMidYMid" width="21" height="21" viewBox="0 0 21 21">
  <defs>
    <style>
      .cls-1 {
        fill: #1d1d1d;
        fill-rule: evenodd;
      }
    </style>
  </defs>
  <path d="M10.500,21.000 C4.710,21.000 -0.000,16.290 -0.000,10.500 C-0.000,4.710 4.710,-0.000 10.500,-0.000 C16.290,-0.000 21.000,4.710 21.000,10.500 C21.000,16.290 16.290,21.000 10.500,21.000 ZM10.500,1.000 C5.262,1.000 1.000,5.262 1.000,10.500 C1.000,15.738 5.262,20.000 10.500,20.000 C15.738,20.000 20.000,15.738 20.000,10.500 C20.000,5.262 15.738,1.000 10.500,1.000 ZM8.854,15.000 C8.849,15.000 8.843,15.000 8.837,15.000 C8.697,15.000 8.562,14.941 8.467,14.836 L5.704,11.798 L6.444,11.125 L8.811,13.728 L15.108,5.796 L15.892,6.418 L9.229,14.811 C9.138,14.926 9.001,14.995 8.854,15.000 Z" class="cls-1"/>
</svg>
