<svg xmlns="http://www.w3.org/2000/svg" xmlns:xlink="http://www.w3.org/1999/xlink" preserveAspectRatio="xMidYMid" width="12" height="12" viewBox="0 0 12 12">
  <defs>
    <style>
      .cls-1 {
        fill: #b92121;
        fill-rule: evenodd;
      }
    </style>
  </defs>
  <path d="M10.243,10.242 C9.109,11.376 7.603,12.000 6.000,12.000 C4.397,12.000 2.891,11.376 1.757,10.242 C0.624,9.109 0.000,7.602 0.000,6.000 C0.000,4.397 0.624,2.890 1.757,1.757 C2.891,0.624 4.397,-0.000 6.000,-0.000 C7.603,-0.000 9.109,0.624 10.243,1.757 C11.376,2.890 12.000,4.397 12.000,6.000 C12.000,7.602 11.376,9.109 10.243,10.242 ZM6.000,0.488 C2.961,0.488 0.488,2.960 0.488,6.000 C0.488,9.039 2.961,11.512 6.000,11.512 C9.039,11.512 11.512,9.039 11.512,6.000 C11.512,2.960 9.039,0.488 6.000,0.488 ZM6.832,3.361 L6.322,7.985 L5.678,7.985 L5.180,3.357 C5.172,3.260 5.164,3.177 5.157,3.107 C5.150,3.029 5.147,2.963 5.147,2.907 C5.147,2.620 5.228,2.382 5.387,2.199 C5.553,2.009 5.767,1.909 6.007,1.909 C6.247,1.909 6.460,2.009 6.621,2.197 C6.775,2.378 6.853,2.639 6.853,2.973 C6.853,3.073 6.846,3.198 6.833,3.356 L6.832,3.361 ZM5.391,8.655 C5.467,8.579 5.557,8.518 5.659,8.473 C5.764,8.427 5.877,8.403 5.993,8.403 C6.110,8.403 6.222,8.427 6.328,8.473 C6.429,8.518 6.519,8.579 6.595,8.655 C6.672,8.732 6.732,8.822 6.775,8.922 C6.818,9.024 6.840,9.133 6.840,9.244 C6.840,9.358 6.818,9.469 6.776,9.573 C6.733,9.676 6.672,9.768 6.595,9.845 C6.518,9.922 6.426,9.983 6.322,10.026 C6.218,10.069 6.108,10.090 5.993,10.090 C5.879,10.090 5.768,10.069 5.665,10.026 C5.561,9.983 5.469,9.922 5.391,9.845 C5.314,9.768 5.253,9.676 5.211,9.572 C5.168,9.469 5.147,9.358 5.147,9.244 C5.147,9.133 5.168,9.024 5.212,8.922 C5.254,8.822 5.315,8.732 5.391,8.655 Z" class="cls-1"/>
</svg>
