<svg xmlns="http://www.w3.org/2000/svg" xmlns:xlink="http://www.w3.org/1999/xlink" preserveAspectRatio="xMidYMid" width="30" height="26" viewBox="0 0 30 26">
  <defs>
    <style>
      .cls-1 {
        fill: #4b4b4b;
        fill-rule: evenodd;
      }
    </style>
  </defs>
  <path d="M24.965,18.154 C22.174,18.154 19.904,15.803 19.904,12.912 L19.904,12.457 L24.966,3.713 L30.006,12.457 L30.006,12.912 C30.006,15.803 27.745,18.154 24.965,18.154 ZM24.965,5.533 L20.926,12.457 L28.986,12.457 L24.965,5.533 ZM20.801,13.365 C21.020,15.543 22.805,17.247 24.965,17.247 C27.116,17.247 28.892,15.543 29.110,13.365 L20.801,13.365 ZM15.434,4.787 L15.434,21.347 L22.488,23.685 L22.488,26.001 L7.516,26.001 L7.516,23.685 L14.562,21.347 L14.562,4.787 C13.633,4.602 12.901,3.844 12.723,2.883 L4.870,2.883 L4.870,1.975 L12.723,1.975 C12.928,0.856 13.868,0.007 14.996,0.007 C16.134,0.007 17.079,0.856 17.286,1.975 L25.160,1.975 L25.160,2.883 L17.285,2.883 C17.106,3.845 16.369,4.603 15.434,4.787 ZM8.388,24.348 L8.388,25.093 L21.613,25.093 L21.613,24.348 L14.995,22.155 L8.388,24.348 ZM14.996,0.914 C14.202,0.914 13.552,1.594 13.552,2.428 C13.552,3.254 14.202,3.926 14.996,3.926 C15.800,3.926 16.453,3.254 16.453,2.428 C16.453,1.594 15.800,0.914 14.996,0.914 ZM10.108,12.457 L10.108,12.912 C10.108,15.803 7.841,18.154 5.056,18.154 C2.268,18.154 -0.001,15.803 -0.001,12.912 L-0.001,12.457 L5.057,3.715 L10.108,12.457 ZM5.056,17.247 C7.213,17.247 8.992,15.543 9.213,13.365 L0.898,13.365 C1.117,15.543 2.899,17.247 5.056,17.247 ZM9.088,12.457 L5.057,5.531 L1.023,12.457 L9.088,12.457 Z" class="cls-1"/>
</svg>
