<svg xmlns="http://www.w3.org/2000/svg" xmlns:xlink="http://www.w3.org/1999/xlink" preserveAspectRatio="xMidYMid" width="75.062" height="54.062" viewBox="0 0 75.062 54.062">
  <defs>
    <style>
      .cls-1 {
        fill: #fff;
        fill-rule: evenodd;
      }
    </style>
  </defs>
  <path d="M69.735,53.956 C69.684,53.965 69.634,53.972 69.583,53.980 C69.291,54.021 68.995,54.050 68.692,54.050 L6.373,54.050 C6.069,54.050 5.773,54.021 5.481,53.980 C5.430,53.972 5.380,53.965 5.329,53.956 C2.307,53.451 -0.007,50.802 -0.007,47.610 L-0.007,6.430 C-0.007,3.239 2.307,0.591 5.329,0.087 C5.380,0.078 5.430,0.071 5.481,0.063 C5.773,0.022 6.069,-0.007 6.373,-0.007 L68.692,-0.007 C68.996,-0.007 69.292,0.022 69.584,0.063 C69.634,0.071 69.684,0.078 69.734,0.087 C72.754,0.591 75.065,3.239 75.065,6.430 L75.065,47.610 C75.065,50.802 72.754,53.451 69.735,53.956 ZM71.634,8.352 L50.908,27.022 L71.634,45.691 L71.634,8.352 ZM4.220,49.628 C4.768,50.223 5.545,50.585 6.373,50.585 L68.692,50.585 C69.520,50.585 70.297,50.221 70.843,49.622 L48.330,29.344 L38.676,38.039 C38.350,38.332 37.943,38.479 37.534,38.479 C37.125,38.479 36.718,38.332 36.393,38.039 L26.733,29.340 L4.214,49.621 C4.216,49.623 4.218,49.626 4.220,49.628 ZM24.156,27.020 L3.424,8.352 L3.424,45.690 L24.156,27.020 ZM6.373,3.458 C5.543,3.458 4.765,3.821 4.217,4.418 C4.216,4.419 4.215,4.420 4.214,4.422 L37.534,34.425 L70.843,4.421 C70.297,3.822 69.520,3.458 68.692,3.458 L6.373,3.458 Z" class="cls-1"/>
</svg>
