<svg xmlns="http://www.w3.org/2000/svg" xmlns:xlink="http://www.w3.org/1999/xlink" preserveAspectRatio="xMidYMid" width="70" height="70" viewBox="0 0 70 70">
  <defs>
    <style>
      .cls-1 {
        fill: #fff;
        fill-rule: evenodd;
      }
    </style>
  </defs>
  <path d="M64.161,55.416 L59.787,55.416 L59.787,65.625 C59.787,68.037 57.825,70.000 55.413,70.000 L14.588,70.000 C12.176,70.000 10.214,68.037 10.214,65.625 L10.214,55.416 L5.840,55.416 C2.623,55.416 0.008,52.800 0.008,49.583 L0.008,13.124 C0.008,9.907 2.623,7.291 5.840,7.291 L7.298,7.291 L7.298,4.374 C7.298,1.962 9.260,-0.001 11.672,-0.001 L20.420,-0.001 C22.832,-0.001 24.794,1.962 24.794,4.374 L24.794,7.291 L64.161,7.291 C67.378,7.291 69.993,9.907 69.993,13.124 L69.993,49.583 C69.993,52.800 67.378,55.416 64.161,55.416 ZM13.130,65.625 C13.130,66.429 13.784,67.083 14.588,67.083 L55.413,67.083 C56.218,67.083 56.871,66.429 56.871,65.625 L56.871,47.395 C56.871,46.994 56.544,46.666 56.142,46.666 L13.859,46.666 C13.458,46.666 13.130,46.994 13.130,47.395 L13.130,65.625 ZM21.878,4.374 C21.878,3.570 21.225,2.916 20.420,2.916 L11.672,2.916 C10.868,2.916 10.214,3.570 10.214,4.374 L10.214,33.541 C10.214,34.346 10.868,34.999 11.672,34.999 L20.420,34.999 C21.225,34.999 21.878,34.346 21.878,33.541 L21.878,4.374 ZM67.077,13.124 C67.077,11.516 65.769,10.208 64.161,10.208 L24.794,10.208 L24.794,33.541 C24.794,35.954 22.832,37.916 20.420,37.916 L11.672,37.916 C9.260,37.916 7.298,35.954 7.298,33.541 L7.298,10.208 L5.840,10.208 C4.233,10.208 2.924,11.516 2.924,13.124 L2.924,49.583 C2.924,51.191 4.233,52.500 5.840,52.500 L10.214,52.500 L10.214,47.395 C10.214,45.384 11.849,43.750 13.859,43.750 L56.142,43.750 C58.153,43.750 59.787,45.384 59.787,47.395 L59.787,52.500 L64.161,52.500 C65.769,52.500 67.077,51.191 67.077,49.583 L67.077,13.124 ZM58.329,37.916 L55.413,37.916 C54.607,37.916 53.955,37.264 53.955,36.458 C53.955,35.652 54.607,34.999 55.413,34.999 L58.329,34.999 C59.135,34.999 59.787,35.652 59.787,36.458 C59.787,37.264 59.135,37.916 58.329,37.916 ZM58.329,32.083 L55.413,32.083 C54.607,32.083 53.955,31.430 53.955,30.624 C53.955,29.818 54.607,29.166 55.413,29.166 L58.329,29.166 C59.135,29.166 59.787,29.818 59.787,30.624 C59.787,31.430 59.135,32.083 58.329,32.083 ZM58.329,26.249 L55.413,26.249 C54.607,26.249 53.955,25.597 53.955,24.791 C53.955,23.985 54.607,23.333 55.413,23.333 L58.329,23.333 C59.135,23.333 59.787,23.985 59.787,24.791 C59.787,25.597 59.135,26.249 58.329,26.249 ZM58.329,18.958 L32.085,18.958 C31.279,18.958 30.626,18.305 30.626,17.499 C30.626,16.693 31.279,16.041 32.085,16.041 L58.329,16.041 C59.135,16.041 59.787,16.693 59.787,17.499 C59.787,18.305 59.135,18.958 58.329,18.958 ZM32.085,23.333 L35.001,23.333 C35.806,23.333 36.459,23.985 36.459,24.791 C36.459,25.597 35.806,26.249 35.001,26.249 L32.085,26.249 C31.279,26.249 30.626,25.597 30.626,24.791 C30.626,23.985 31.279,23.333 32.085,23.333 ZM32.085,29.166 L35.001,29.166 C35.806,29.166 36.459,29.818 36.459,30.624 C36.459,31.430 35.806,32.083 35.001,32.083 L32.085,32.083 C31.279,32.083 30.626,31.430 30.626,30.624 C30.626,29.818 31.279,29.166 32.085,29.166 ZM32.085,34.999 L35.001,34.999 C35.806,34.999 36.459,35.652 36.459,36.458 C36.459,37.264 35.806,37.916 35.001,37.916 L32.085,37.916 C31.279,37.916 30.626,37.264 30.626,36.458 C30.626,35.652 31.279,34.999 32.085,34.999 ZM43.749,23.333 L46.665,23.333 C47.471,23.333 48.123,23.985 48.123,24.791 C48.123,25.597 47.471,26.249 46.665,26.249 L43.749,26.249 C42.943,26.249 42.291,25.597 42.291,24.791 C42.291,23.985 42.943,23.333 43.749,23.333 ZM43.749,29.166 L46.665,29.166 C47.471,29.166 48.123,29.818 48.123,30.624 C48.123,31.430 47.471,32.083 46.665,32.083 L43.749,32.083 C42.943,32.083 42.291,31.430 42.291,30.624 C42.291,29.818 42.943,29.166 43.749,29.166 ZM43.749,34.999 L46.665,34.999 C47.471,34.999 48.123,35.652 48.123,36.458 C48.123,37.264 47.471,37.916 46.665,37.916 L43.749,37.916 C42.943,37.916 42.291,37.264 42.291,36.458 C42.291,35.652 42.943,34.999 43.749,34.999 ZM20.420,52.500 L49.581,52.500 C50.387,52.500 51.039,53.152 51.039,53.958 C51.039,54.764 50.387,55.416 49.581,55.416 L20.420,55.416 C19.614,55.416 18.962,54.764 18.962,53.958 C18.962,53.152 19.614,52.500 20.420,52.500 ZM20.420,58.333 L43.749,58.333 C44.555,58.333 45.207,58.985 45.207,59.791 C45.207,60.597 44.555,61.250 43.749,61.250 L20.420,61.250 C19.614,61.250 18.962,60.597 18.962,59.791 C18.962,58.985 19.614,58.333 20.420,58.333 Z" class="cls-1"/>
</svg>
