<svg xmlns="http://www.w3.org/2000/svg" xmlns:xlink="http://www.w3.org/1999/xlink" preserveAspectRatio="xMidYMid" width="62" height="41" viewBox="0 0 62 41">
  <defs>
    <style>
      .cls-1 {
        fill: #186583;
        stroke: #186583;
        stroke-width: 3px;
        fill-rule: evenodd;
      }
    </style>
  </defs>
  <path d="M60.421,18.931 C60.301,19.264 60.057,19.546 59.734,19.726 L55.444,22.122 C55.212,22.252 54.958,22.318 54.705,22.318 C54.607,22.318 54.508,22.308 54.412,22.287 C54.049,22.210 53.754,21.995 53.583,21.683 L53.367,21.291 C52.396,22.591 50.078,24.330 49.137,25.010 C50.133,26.139 50.233,27.441 49.368,28.568 C48.450,29.766 46.876,29.570 45.565,29.097 C45.673,29.306 45.758,29.530 45.807,29.767 C45.952,30.469 45.769,31.161 45.262,31.822 C44.375,32.979 43.019,33.010 41.851,32.680 C41.915,32.828 41.964,32.985 41.994,33.151 C42.110,33.776 41.946,34.417 41.507,35.055 C40.440,36.605 38.802,36.404 37.787,36.074 C37.732,36.736 37.497,37.271 37.083,37.670 C36.538,38.196 35.713,38.460 34.622,38.460 C34.340,38.460 34.041,38.443 33.723,38.407 C31.837,38.196 29.695,37.285 29.018,36.980 L28.089,38.257 C27.499,39.069 26.581,39.500 25.652,39.500 C25.033,39.500 24.409,39.309 23.873,38.912 C23.069,38.318 22.651,37.395 22.649,36.459 C22.283,36.711 21.869,36.889 21.417,36.959 C21.261,36.983 21.106,36.995 20.951,36.995 C20.315,36.995 19.697,36.793 19.174,36.406 C18.306,35.764 17.886,34.738 17.959,33.727 C17.664,33.885 17.347,34.004 17.007,34.057 C16.851,34.082 16.695,34.094 16.540,34.094 C15.904,34.094 15.286,33.891 14.764,33.504 C14.114,33.024 13.689,32.317 13.566,31.513 C13.485,30.983 13.555,30.457 13.741,29.969 C13.476,30.044 13.205,30.093 12.930,30.093 C12.311,30.093 11.687,29.902 11.151,29.506 C9.810,28.514 9.518,26.606 10.501,25.253 L11.257,24.214 L8.557,21.160 L8.447,21.360 C8.264,21.694 7.962,21.937 7.598,22.042 C7.468,22.079 7.336,22.098 7.205,22.098 C6.968,22.098 6.733,22.037 6.519,21.917 L2.229,19.522 C1.546,19.140 1.298,18.268 1.676,17.578 C1.676,17.577 1.676,17.577 1.676,17.577 L10.117,2.254 C10.496,1.566 11.361,1.315 12.043,1.696 L16.334,4.094 C16.665,4.278 16.905,4.582 17.010,4.949 C17.115,5.316 17.071,5.702 16.888,6.037 L16.501,6.739 C17.077,7.248 18.609,8.498 20.056,8.796 C20.875,8.964 23.345,9.472 23.743,9.438 C24.028,8.965 24.260,8.594 24.394,8.406 C24.399,8.398 24.405,8.390 24.412,8.383 C24.434,8.356 24.973,7.717 25.805,7.509 C34.446,5.358 39.292,6.888 41.621,7.623 C42.177,7.799 42.617,7.938 42.870,7.948 C43.937,7.995 45.086,7.358 45.556,7.066 L45.276,6.556 C45.105,6.244 45.081,5.879 45.208,5.527 C45.328,5.194 45.572,4.912 45.894,4.732 L50.186,2.335 C50.508,2.155 50.875,2.096 51.218,2.170 C51.581,2.248 51.876,2.462 52.047,2.774 L60.353,17.901 L60.353,17.901 C60.524,18.212 60.549,18.578 60.421,18.931 ZM24.331,38.281 C25.327,39.018 26.733,38.800 27.464,37.795 L28.769,35.999 C29.123,35.512 29.268,34.916 29.177,34.319 C29.085,33.722 28.769,33.196 28.286,32.839 C27.888,32.544 27.424,32.403 26.964,32.403 C26.274,32.403 25.592,32.722 25.154,33.325 L24.509,34.213 L23.847,35.123 C23.118,36.128 23.335,37.545 24.331,38.281 ZM19.633,35.775 C20.115,36.132 20.707,36.278 21.299,36.186 C21.891,36.094 22.412,35.775 22.765,35.288 L23.222,34.660 C23.222,34.660 23.222,34.659 23.223,34.659 L23.631,34.098 L25.305,31.794 C25.659,31.307 25.804,30.710 25.713,30.113 C25.622,29.516 25.306,28.991 24.823,28.634 C24.425,28.340 23.961,28.198 23.502,28.198 C22.906,28.198 22.326,28.450 21.894,28.902 L19.138,32.636 C18.425,33.640 18.643,35.043 19.633,35.775 ZM15.222,32.873 C15.705,33.230 16.297,33.377 16.889,33.284 C17.480,33.192 18.001,32.873 18.355,32.386 C18.356,32.386 18.357,32.385 18.357,32.384 L18.512,32.174 C18.517,32.167 18.520,32.159 18.525,32.153 L21.065,28.658 C21.138,28.558 21.225,28.476 21.308,28.388 L21.321,28.369 C21.674,27.885 21.819,27.289 21.728,26.692 C21.637,26.095 21.321,25.569 20.838,25.212 C20.449,24.924 19.989,24.774 19.516,24.774 C19.402,24.774 19.286,24.783 19.171,24.800 C18.579,24.892 18.059,25.211 17.705,25.698 L14.738,29.717 C14.386,30.201 14.242,30.797 14.333,31.394 C14.424,31.991 14.740,32.517 15.222,32.873 ZM11.126,25.716 C10.396,26.721 10.613,28.138 11.609,28.875 C12.605,29.611 14.011,29.393 14.742,28.389 L15.555,27.270 C16.285,26.265 16.068,24.848 15.072,24.110 C14.674,23.816 14.210,23.674 13.751,23.674 C13.060,23.674 12.378,23.994 11.939,24.598 L11.126,25.716 ZM16.264,5.165 C16.217,4.999 16.109,4.862 15.959,4.778 L11.667,2.381 C11.358,2.208 10.967,2.322 10.794,2.634 L2.355,17.956 C2.183,18.269 2.295,18.665 2.605,18.838 L6.895,21.233 C7.046,21.318 7.219,21.337 7.384,21.290 C7.549,21.242 7.685,21.133 7.769,20.981 L9.118,18.531 L15.642,6.606 C15.671,6.554 15.711,6.509 15.759,6.476 L16.209,5.658 C16.292,5.507 16.312,5.331 16.264,5.165 ZM19.901,9.562 C18.370,9.248 16.826,8.050 16.115,7.439 L9.811,18.884 L8.959,20.440 L11.782,23.633 C12.822,22.731 14.378,22.628 15.531,23.479 C16.266,24.024 16.672,24.844 16.740,25.696 L17.081,25.234 C17.555,24.580 18.256,24.151 19.053,24.027 C19.850,23.905 20.646,24.100 21.296,24.581 C21.946,25.062 22.372,25.769 22.494,26.573 C22.547,26.921 22.530,27.266 22.467,27.601 C23.382,27.267 24.440,27.381 25.281,28.003 C25.931,28.483 26.357,29.191 26.479,29.995 C26.570,30.591 26.485,31.188 26.240,31.724 C27.078,31.515 27.996,31.655 28.745,32.208 C29.395,32.689 29.820,33.396 29.943,34.200 C30.058,34.951 29.885,35.697 29.474,36.327 C30.239,36.661 32.162,37.445 33.809,37.629 C34.706,37.731 35.909,37.720 36.547,37.105 C36.870,36.793 37.018,36.342 37.015,35.747 C35.999,35.213 31.964,33.029 31.079,32.550 C30.890,32.448 30.819,32.211 30.921,32.020 C31.022,31.830 31.257,31.758 31.446,31.861 C33.793,33.132 37.359,35.057 37.563,35.152 C37.564,35.153 37.564,35.154 37.565,35.154 C37.567,35.155 37.569,35.155 37.571,35.156 C38.412,35.528 39.949,35.946 40.870,34.609 C41.186,34.149 41.308,33.707 41.232,33.295 C41.122,32.703 40.633,32.241 40.217,31.946 C40.197,31.933 40.177,31.920 40.158,31.907 C40.155,31.906 40.155,31.903 40.153,31.902 C39.917,31.744 36.079,29.572 33.551,28.147 C33.364,28.042 33.297,27.804 33.402,27.615 C33.507,27.426 33.743,27.360 33.929,27.464 C34.579,27.831 40.286,31.049 40.590,31.256 C40.590,31.256 40.590,31.256 40.590,31.256 C40.590,31.256 40.590,31.256 40.590,31.256 C40.603,31.264 40.616,31.273 40.629,31.282 C40.992,31.506 43.436,32.925 44.649,31.343 C45.015,30.865 45.146,30.402 45.048,29.927 C44.894,29.181 44.177,28.535 43.687,28.189 C43.494,28.072 43.374,27.991 43.341,27.969 L36.079,23.422 C35.897,23.308 35.841,23.067 35.954,22.884 C36.067,22.699 36.307,22.643 36.488,22.757 L43.753,27.306 C43.783,27.323 43.882,27.379 44.034,27.482 C44.904,28.004 47.674,29.499 48.755,28.089 C49.701,26.857 48.867,25.776 48.285,25.241 L48.291,25.235 C48.285,25.230 48.276,25.232 48.270,25.227 C48.242,25.198 45.412,22.324 40.016,18.618 C36.667,16.317 31.632,13.693 30.631,13.177 C29.864,13.551 28.873,13.710 28.392,13.769 C28.133,14.720 27.008,17.613 22.865,18.210 C20.768,18.511 19.612,17.331 19.564,17.280 C19.445,17.156 19.421,16.967 19.506,16.816 C19.631,16.594 21.853,12.638 23.299,10.185 C22.719,10.118 21.729,9.938 19.901,9.562 ZM23.561,9.576 L23.630,9.626 C23.668,9.563 23.702,9.507 23.737,9.448 C23.696,9.459 23.622,9.489 23.561,9.576 ZM45.866,7.791 C45.272,8.146 44.034,8.772 42.839,8.730 C42.484,8.715 42.025,8.570 41.389,8.370 C39.128,7.656 34.422,6.170 25.991,8.269 C25.456,8.402 25.073,8.810 25.013,8.877 C24.320,9.863 21.099,15.570 20.341,16.917 C20.706,17.179 21.523,17.614 22.755,17.436 C27.116,16.808 27.673,13.491 27.695,13.350 C27.722,13.171 27.869,13.033 28.048,13.019 C28.063,13.017 29.558,12.896 30.439,12.396 C30.498,12.363 30.563,12.346 30.629,12.346 C30.689,12.346 30.749,12.360 30.804,12.388 C30.862,12.417 36.695,15.391 40.453,17.972 C45.034,21.118 47.797,23.682 48.587,24.446 C50.151,23.326 52.436,21.480 52.949,20.529 L51.817,18.468 L45.866,7.791 ZM59.675,18.280 C59.675,18.280 59.675,18.280 59.675,18.280 L51.368,3.153 C51.307,3.042 51.197,2.965 51.057,2.935 C51.013,2.925 50.969,2.921 50.923,2.921 C50.802,2.921 50.677,2.954 50.562,3.019 L46.270,5.416 C46.111,5.505 45.993,5.639 45.937,5.795 C45.888,5.931 45.894,6.067 45.954,6.177 L52.500,18.097 L53.729,20.302 C53.736,20.314 53.727,20.329 53.733,20.341 L54.262,21.305 C54.322,21.415 54.433,21.492 54.573,21.522 C54.733,21.557 54.909,21.527 55.068,21.438 L59.359,19.042 C59.518,18.953 59.636,18.818 59.693,18.663 C59.742,18.526 59.735,18.391 59.675,18.280 Z" class="cls-1"/>
</svg>
