<svg xmlns="http://www.w3.org/2000/svg" xmlns:xlink="http://www.w3.org/1999/xlink" preserveAspectRatio="xMidYMid" width="34" height="34" viewBox="0 0 34 34">
  <defs>
    <style>
      .cls-1 {
        fill: #186583;
      }

      .cls-2 {
        fill: #fff;
        fill-rule: evenodd;
      }
    </style>
  </defs>
  <g>
    <circle cx="17" cy="17" r="16" class="cls-1"/>
    <path d="M17.000,34.000 C7.626,34.000 -0.000,26.374 -0.000,17.000 C-0.000,7.626 7.626,-0.000 17.000,-0.000 C26.374,-0.000 34.000,7.626 34.000,17.000 C34.000,26.374 26.374,34.000 17.000,34.000 ZM17.000,1.292 C8.338,1.292 1.292,8.338 1.292,17.000 C1.292,25.662 8.338,32.708 17.000,32.708 C25.662,32.708 32.708,25.662 32.708,17.000 C32.708,8.338 25.662,1.292 17.000,1.292 ZM17.680,10.880 C16.929,10.880 16.320,10.271 16.320,9.520 C16.320,8.769 16.929,8.160 17.680,8.160 C18.431,8.160 19.040,8.769 19.040,9.520 C19.040,10.271 18.431,10.880 17.680,10.880 ZM17.750,13.543 C18.074,13.938 18.202,14.452 18.102,14.953 L17.777,16.566 C17.282,19.019 16.587,22.471 16.339,23.739 C16.268,24.104 16.314,24.320 16.375,24.394 C16.439,24.471 16.618,24.480 16.692,24.480 C16.889,24.480 17.513,24.204 18.001,23.902 C18.320,23.705 18.740,23.803 18.938,24.121 C19.136,24.441 19.038,24.859 18.719,25.058 C18.424,25.241 17.404,25.840 16.692,25.840 C15.958,25.840 15.544,25.524 15.325,25.259 C15.079,24.959 14.823,24.408 15.004,23.478 C15.252,22.209 15.949,18.754 16.443,16.297 L16.768,14.685 C16.795,14.549 16.736,14.451 16.698,14.405 C16.661,14.358 16.575,14.280 16.434,14.280 L15.640,14.280 C15.264,14.280 14.960,13.976 14.960,13.600 C14.960,13.224 15.264,12.920 15.640,12.920 L16.434,12.920 C16.946,12.920 17.426,13.147 17.750,13.543 Z" class="cls-2"/>
  </g>
</svg>
