<svg xmlns="http://www.w3.org/2000/svg" xmlns:xlink="http://www.w3.org/1999/xlink" preserveAspectRatio="xMidYMid" width="35" height="34" viewBox="0 0 35 34">
  <defs>
    <style>
      .cls-1 {
        fill: #fff;
      }

      .cls-2 {
        fill: #186583;
        fill-rule: evenodd;
      }
    </style>
  </defs>
  <g>
    <circle cx="16" cy="17" r="16" class="cls-1"/>
    <path d="M18.000,34.000 C8.626,34.000 1.000,26.374 1.000,17.000 C1.000,7.626 8.626,-0.000 18.000,-0.000 C27.374,-0.000 35.000,7.626 35.000,17.000 C35.000,26.374 27.374,34.000 18.000,34.000 ZM18.000,1.292 C9.338,1.292 2.292,8.338 2.292,17.000 C2.292,25.662 9.338,32.708 18.000,32.708 C26.662,32.708 33.708,25.662 33.708,17.000 C33.708,8.338 26.662,1.292 18.000,1.292 ZM18.680,10.880 C17.929,10.880 17.320,10.271 17.320,9.520 C17.320,8.769 17.929,8.160 18.680,8.160 C19.431,8.160 20.040,8.769 20.040,9.520 C20.040,10.271 19.431,10.880 18.680,10.880 ZM18.750,13.543 C19.074,13.938 19.202,14.452 19.102,14.953 L18.777,16.566 C18.282,19.019 17.587,22.471 17.339,23.739 C17.268,24.104 17.314,24.320 17.375,24.394 C17.439,24.471 17.618,24.480 17.692,24.480 C17.889,24.480 18.513,24.204 19.001,23.902 C19.320,23.705 19.740,23.803 19.938,24.121 C20.136,24.441 20.038,24.859 19.718,25.058 C19.424,25.241 18.404,25.840 17.692,25.840 C16.958,25.840 16.544,25.524 16.325,25.259 C16.079,24.959 15.823,24.408 16.004,23.479 C16.252,22.209 16.949,18.754 17.443,16.297 L17.768,14.685 C17.795,14.549 17.736,14.451 17.698,14.405 C17.661,14.358 17.575,14.280 17.434,14.280 L16.640,14.280 C16.264,14.280 15.960,13.976 15.960,13.600 C15.960,13.224 16.264,12.920 16.640,12.920 L17.434,12.920 C17.946,12.920 18.426,13.147 18.750,13.543 Z" class="cls-2"/>
  </g>
</svg>
