<svg xmlns="http://www.w3.org/2000/svg" xmlns:xlink="http://www.w3.org/1999/xlink" preserveAspectRatio="xMidYMid" width="61" height="61" viewBox="0 0 61 61">
  <defs>
    <style>
      .cls-1 {
        fill: #1d1d1d;
        fill-rule: evenodd;
      }
    </style>
  </defs>
  <path d="M59.475,32.025 L26.699,32.025 L33.115,38.584 C33.704,39.184 33.693,40.152 33.091,40.740 C32.488,41.329 31.523,41.318 30.935,40.716 L21.984,31.566 C21.396,30.965 21.406,29.998 22.007,29.409 L30.935,20.284 C31.523,19.681 32.488,19.671 33.091,20.259 C33.693,20.848 33.704,21.815 33.115,22.416 L26.699,28.975 L59.475,28.975 C60.317,28.975 61.000,29.658 61.000,30.500 C61.000,31.342 60.317,32.025 59.475,32.025 ZM39.650,3.050 L3.050,3.050 L3.050,57.950 L39.650,57.950 L39.650,38.125 L42.700,38.125 L42.700,59.475 C42.700,60.317 42.017,61.000 41.175,61.000 L1.525,61.000 C0.683,61.000 -0.000,60.317 -0.000,59.475 L-0.000,1.525 C-0.000,0.683 0.683,-0.000 1.525,-0.000 L41.175,-0.000 C42.017,-0.000 42.700,0.683 42.700,1.525 L42.700,22.875 L39.650,22.875 L39.650,3.050 Z" class="cls-1"/>
</svg>
