<svg xmlns="http://www.w3.org/2000/svg" xmlns:xlink="http://www.w3.org/1999/xlink" preserveAspectRatio="xMidYMid" width="20.031" height="20" viewBox="0 0 20.031 20">
  <defs>
    <style>
      .cls-1 {
        fill: #186583;
        fill-rule: evenodd;
      }
    </style>
  </defs>
  <path d="M19.845,19.844 C19.740,19.950 19.602,20.003 19.465,20.003 C19.327,20.003 19.189,19.950 19.084,19.844 L13.625,14.326 C12.177,15.657 10.260,16.477 8.152,16.477 C3.658,16.477 0.001,12.781 0.001,8.237 C0.001,3.694 3.658,-0.001 8.152,-0.001 C12.647,-0.001 16.303,3.694 16.303,8.237 C16.303,10.259 15.576,12.110 14.376,13.546 L19.845,19.074 C20.056,19.287 20.056,19.631 19.845,19.844 ZM8.152,1.087 C4.252,1.087 1.078,4.295 1.078,8.237 C1.078,12.180 4.252,15.388 8.152,15.388 C12.053,15.388 15.226,12.180 15.226,8.237 C15.226,4.295 12.053,1.087 8.152,1.087 Z" class="cls-1"/>
</svg>
