<svg xmlns="http://www.w3.org/2000/svg" xmlns:xlink="http://www.w3.org/1999/xlink" preserveAspectRatio="xMidYMid" width="30" height="30" viewBox="0 0 30 30">
  <defs>
    <style>
      .cls-1 {
        fill: #66615e;
      }

      .cls-2 {
        fill: #ff851e;
        fill-rule: evenodd;
      }
    </style>
  </defs>
  <g>
    <circle cx="15.5" cy="15.5" r="14.5" class="cls-1"/>
    <path d="M15.000,30.000 C6.729,30.000 -0.000,23.271 -0.000,15.000 C-0.000,6.729 6.729,-0.000 15.000,-0.000 C23.271,-0.000 30.000,6.729 30.000,15.000 C30.000,23.271 23.271,30.000 15.000,30.000 ZM15.000,1.428 C7.517,1.428 1.429,7.517 1.429,15.000 C1.429,22.483 7.517,28.571 15.000,28.571 C22.483,28.571 28.571,22.483 28.571,15.000 C28.571,7.517 22.483,1.428 15.000,1.428 ZM12.649,21.428 C12.641,21.428 12.632,21.428 12.625,21.428 C12.424,21.428 12.232,21.344 12.096,21.195 L8.148,16.854 L9.205,15.892 L12.588,19.612 L21.583,8.280 L22.702,9.168 L13.184,21.158 C13.054,21.322 12.859,21.421 12.649,21.428 Z" class="cls-2"/>
  </g>
</svg>
