<svg xmlns="http://www.w3.org/2000/svg" xmlns:xlink="http://www.w3.org/1999/xlink" preserveAspectRatio="xMidYMid" width="67" height="64" viewBox="0 0 67 64">
  <defs>
    <style>
      .cls-1 {
        fill: #fff;
        fill-rule: evenodd;
      }
    </style>
  </defs>
  <path d="M33.489,0.012 C15.019,0.012 -0.007,14.365 -0.007,32.007 C-0.007,49.649 15.019,64.002 33.489,64.002 C51.960,64.002 66.986,49.649 66.986,32.007 C66.986,14.365 51.960,0.012 33.489,0.012 ZM2.706,33.287 L14.750,33.287 C14.840,37.389 15.361,41.270 16.243,44.805 L5.742,44.805 C3.960,41.295 2.892,37.399 2.706,33.287 ZM34.829,16.650 L34.829,2.682 C40.061,3.476 44.590,8.870 47.200,16.650 L34.829,16.650 ZM47.966,19.209 C48.896,22.719 49.453,26.615 49.550,30.727 L34.829,30.727 L34.829,19.209 L47.966,19.209 ZM32.149,2.682 L32.149,16.650 L19.779,16.650 C22.389,8.870 26.917,3.476 32.149,2.682 ZM32.149,19.209 L32.149,30.727 L17.429,30.727 C17.525,26.615 18.083,22.719 19.012,19.209 L32.149,19.209 ZM14.750,30.727 L2.706,30.727 C2.892,26.615 3.960,22.655 5.742,19.145 L16.243,19.145 C15.361,22.680 14.840,26.625 14.750,30.727 ZM17.429,33.287 L32.149,33.287 L32.149,44.805 L19.012,44.805 C18.083,41.295 17.525,37.399 17.429,33.287 ZM32.149,47.364 L32.149,61.332 C26.917,60.538 22.389,55.144 19.779,47.364 L32.149,47.364 ZM34.829,61.332 L34.829,47.301 L47.200,47.301 C44.590,55.080 40.061,60.538 34.829,61.332 ZM34.829,44.805 L34.829,33.223 L49.550,33.223 C49.453,37.335 48.896,41.295 47.966,44.805 L34.829,44.805 ZM52.229,33.223 L64.272,33.223 C64.087,37.335 63.018,41.295 61.237,44.805 L50.736,44.805 C51.617,41.270 52.138,37.325 52.229,33.223 ZM52.229,30.727 C52.138,26.625 51.617,22.744 50.736,19.209 L61.237,19.209 C63.018,22.719 64.087,26.615 64.272,30.727 L52.229,30.727 ZM59.767,16.650 L50.019,16.650 C48.317,11.232 45.726,6.799 42.557,3.874 C49.785,6.004 55.884,10.609 59.767,16.650 ZM24.421,3.874 C21.253,6.799 18.662,11.232 16.959,16.650 L7.211,16.650 C11.095,10.609 17.194,6.004 24.421,3.874 ZM7.211,47.364 L16.959,47.364 C18.662,52.782 21.253,57.215 24.421,60.140 C17.194,58.010 11.095,53.405 7.211,47.364 ZM42.557,60.140 C45.726,57.215 48.317,52.718 50.019,47.301 L59.767,47.301 C55.884,53.341 49.785,58.010 42.557,60.140 Z" class="cls-1"/>
</svg>
